<?xml version="1.0" encoding="UTF-8" standalone="no"?>
<!DOCTYPE svg PUBLIC "-//W3C//DTD SVG 1.1//EN"
 "http://www.w3.org/Graphics/SVG/1.1/DTD/svg11.dtd">
<!-- Generated by graphviz version 2.40.1 (20161225.0304)
 -->
<!-- Title: G Pages: 1 -->
<svg width="783pt" height="692pt"
 viewBox="0.00 0.00 782.55 692.00" xmlns="http://www.w3.org/2000/svg" xmlns:xlink="http://www.w3.org/1999/xlink">
<g id="graph0" class="graph" transform="scale(1 1) rotate(0) translate(4 688)">
<title>G</title>
<polygon fill="#ffffff" stroke="transparent" points="-4,4 -4,-688 778.5454,-688 778.5454,4 -4,4"/>
<g id="clust1" class="cluster">
<title>cluster_6</title>
<polygon fill="none" stroke="#000000" points="103.9385,-136 103.9385,-188 464.9385,-188 464.9385,-136 103.9385,-136"/>
</g>
<g id="clust2" class="cluster">
<title>cluster_7</title>
<polygon fill="none" stroke="#000000" points="211.9385,-64 211.9385,-116 355.9385,-116 355.9385,-64 211.9385,-64"/>
</g>
<!-- snarky -->
<g id="node1" class="node">
<title>snarky</title>
<polygon fill="#ff7f24" stroke="#000000" points="243.9385,-396 189.9385,-396 189.9385,-360 243.9385,-360 243.9385,-396"/>
<text text-anchor="middle" x="216.9385" y="-373.8" font-family="Times,serif" font-size="14.00" fill="#ffffff">snarky</text>
</g>
<!-- R1CS -->
<g id="node2" class="node">
<title>R1CS</title>
<polygon fill="#0000ff" stroke="#000000" points="317.9385,-324 263.9385,-324 263.9385,-288 317.9385,-288 317.9385,-324"/>
<text text-anchor="middle" x="290.9385" y="-301.8" font-family="Times,serif" font-size="14.00" fill="#ffffff">R1CS</text>
</g>
<!-- snarky&#45;&gt;R1CS -->
<g id="edge1" class="edge">
<title>snarky&#45;&gt;R1CS</title>
<path fill="none" stroke="#000000" d="M235.6118,-359.8314C244.4634,-351.219 255.1871,-340.7851 264.828,-331.4048"/>
<polygon fill="#000000" stroke="#000000" points="267.5446,-333.645 272.2711,-324.1628 262.6631,-328.6279 267.5446,-333.645"/>
</g>
<!-- Bellman -->
<g id="node5" class="node">
<title>Bellman</title>
<polygon fill="#8b7355" stroke="#000000" points="451.8745,-252 388.0024,-252 388.0024,-216 451.8745,-216 451.8745,-252"/>
<text text-anchor="middle" x="419.9385" y="-229.8" font-family="Times,serif" font-size="14.00" fill="#ffffff">Bellman</text>
</g>
<!-- R1CS&#45;&gt;Bellman -->
<g id="edge47" class="edge">
<title>R1CS&#45;&gt;Bellman</title>
<path fill="none" stroke="#000000" d="M317.9811,-290.9064C335.664,-281.0369 359.0949,-267.9592 379.0356,-256.8295"/>
<polygon fill="#000000" stroke="#000000" points="380.8926,-259.8014 387.9188,-251.8715 377.481,-253.689 380.8926,-259.8014"/>
</g>
<!-- zexe -->
<g id="node6" class="node">
<title>zexe</title>
<polygon fill="#8b7355" stroke="#000000" points="369.9385,-252 315.9385,-252 315.9385,-216 369.9385,-216 369.9385,-252"/>
<text text-anchor="middle" x="342.9385" y="-229.8" font-family="Times,serif" font-size="14.00" fill="#ffffff">zexe</text>
</g>
<!-- R1CS&#45;&gt;zexe -->
<g id="edge27" class="edge">
<title>R1CS&#45;&gt;zexe</title>
<path fill="none" stroke="#000000" d="M304.0603,-287.8314C309.9884,-279.6232 317.1114,-269.7606 323.6318,-260.7323"/>
<polygon fill="#000000" stroke="#000000" points="326.6224,-262.5693 329.64,-252.4133 320.9477,-258.4708 326.6224,-262.5693"/>
</g>
<!-- dalek&#45;cryptography -->
<g id="node7" class="node">
<title>dalek&#45;cryptography</title>
<polygon fill="#8b7355" stroke="#000000" points="595.5601,-252 470.3168,-252 470.3168,-216 595.5601,-216 595.5601,-252"/>
<text text-anchor="middle" x="532.9385" y="-229.8" font-family="Times,serif" font-size="14.00" fill="#ffffff">dalek&#45;cryptography</text>
</g>
<!-- R1CS&#45;&gt;dalek&#45;cryptography -->
<g id="edge46" class="edge">
<title>R1CS&#45;&gt;dalek&#45;cryptography</title>
<path fill="none" stroke="#000000" d="M318.2285,-297.8806C352.9219,-287.5587 414.0981,-269.3575 462.2978,-255.0171"/>
<polygon fill="#000000" stroke="#000000" points="463.4754,-258.3184 472.0621,-252.112 461.4792,-251.6091 463.4754,-258.3184"/>
</g>
<!-- libsnark -->
<g id="node18" class="node">
<title>libsnark</title>
<polygon fill="#8b7355" stroke="#000000" points="297.5421,-252 236.3349,-252 236.3349,-216 297.5421,-216 297.5421,-252"/>
<text text-anchor="middle" x="266.9385" y="-229.8" font-family="Times,serif" font-size="14.00" fill="#ffffff">libsnark</text>
</g>
<!-- R1CS&#45;&gt;libsnark -->
<g id="edge48" class="edge">
<title>R1CS&#45;&gt;libsnark</title>
<path fill="none" stroke="#000000" d="M284.8823,-287.8314C282.2873,-280.0463 279.1961,-270.7729 276.3167,-262.1347"/>
<polygon fill="#000000" stroke="#000000" points="279.559,-260.7933 273.0762,-252.4133 272.9182,-263.0069 279.559,-260.7933"/>
</g>
<!-- DIZK -->
<g id="node21" class="node">
<title>DIZK</title>
<polygon fill="#8b7355" stroke="#000000" points="217.9385,-252 163.9385,-252 163.9385,-216 217.9385,-216 217.9385,-252"/>
<text text-anchor="middle" x="190.9385" y="-229.8" font-family="Times,serif" font-size="14.00" fill="#ffffff">DIZK</text>
</g>
<!-- R1CS&#45;&gt;DIZK -->
<g id="edge11" class="edge">
<title>R1CS&#45;&gt;DIZK</title>
<path fill="none" stroke="#000000" d="M265.7043,-287.8314C253.1505,-278.7927 237.8102,-267.7476 224.2993,-258.0198"/>
<polygon fill="#000000" stroke="#000000" points="226.3251,-255.1655 216.1646,-252.1628 222.2349,-260.8463 226.3251,-255.1655"/>
</g>
<!-- snarkjs -->
<g id="node24" class="node">
<title>snarkjs</title>
<polygon fill="#8b7355" stroke="#000000" points="145.6016,-252 90.2753,-252 90.2753,-216 145.6016,-216 145.6016,-252"/>
<text text-anchor="middle" x="117.9385" y="-229.8" font-family="Times,serif" font-size="14.00" fill="#ffffff">snarkjs</text>
</g>
<!-- R1CS&#45;&gt;snarkjs -->
<g id="edge51" class="edge">
<title>R1CS&#45;&gt;snarkjs</title>
<path fill="none" stroke="#000000" d="M263.8556,-295.9314C236.2303,-285.5017 192.2451,-268.4535 154.9385,-252 154.8445,-251.9586 154.7505,-251.917 154.6563,-251.8754"/>
<polygon fill="#000000" stroke="#000000" points="156.2644,-248.7622 145.7144,-247.7885 153.3546,-255.1287 156.2644,-248.7622"/>
</g>
<!-- adjoint&#45;io/bulletproofs -->
<g id="node3" class="node">
<title>adjoint&#45;io/bulletproofs</title>
<polygon fill="#8b7355" stroke="#000000" points="566.918,-108 424.959,-108 424.959,-72 566.918,-72 566.918,-108"/>
<text text-anchor="middle" x="495.9385" y="-85.8" font-family="Times,serif" font-size="14.00" fill="#ffffff">adjoint&#45;io/bulletproofs</text>
</g>
<!-- Bulletproofs -->
<g id="node4" class="node">
<title>Bulletproofs</title>
<polygon fill="#cdc8b1" stroke="#000000" points="637.9316,-36 551.9453,-36 551.9453,0 637.9316,0 637.9316,-36"/>
<text text-anchor="middle" x="594.9385" y="-13.8" font-family="Times,serif" font-size="14.00" fill="#000000">Bulletproofs</text>
</g>
<!-- adjoint&#45;io/bulletproofs&#45;&gt;Bulletproofs -->
<g id="edge2" class="edge">
<title>adjoint&#45;io/bulletproofs&#45;&gt;Bulletproofs</title>
<path fill="none" stroke="#000000" d="M520.9204,-71.8314C533.2313,-62.8779 548.2492,-51.9558 561.5322,-42.2955"/>
<polygon fill="#000000" stroke="#000000" points="563.9358,-44.8752 569.9646,-36.1628 559.8186,-39.214 563.9358,-44.8752"/>
</g>
<!-- Gro16 -->
<g id="node22" class="node">
<title>Gro16</title>
<ellipse fill="#eec591" stroke="#000000" cx="247.9385" cy="-162" rx="32.9081" ry="18"/>
<text text-anchor="middle" x="247.9385" y="-157.8" font-family="Times,serif" font-size="14.00" fill="#000000">Gro16</text>
</g>
<!-- Bellman&#45;&gt;Gro16 -->
<g id="edge36" class="edge">
<title>Bellman&#45;&gt;Gro16</title>
<path fill="none" stroke="#000000" d="M387.8458,-219.5159C384.8518,-218.2842 381.8495,-217.0932 378.9385,-216 340.1187,-201.4215 327.6382,-205.2696 289.9385,-188 285.7916,-186.1004 281.5549,-183.8678 277.4448,-181.5226"/>
<polygon fill="#000000" stroke="#000000" points="279.1084,-178.4392 268.7329,-176.2943 275.5063,-184.4412 279.1084,-178.4392"/>
</g>
<!-- SONIC -->
<g id="node38" class="node">
<title>SONIC</title>
<ellipse fill="#eec591" stroke="#000000" cx="419.9385" cy="-162" rx="36.7836" ry="18"/>
<text text-anchor="middle" x="419.9385" y="-157.8" font-family="Times,serif" font-size="14.00" fill="#000000">SONIC</text>
</g>
<!-- Bellman&#45;&gt;SONIC -->
<g id="edge34" class="edge">
<title>Bellman&#45;&gt;SONIC</title>
<path fill="none" stroke="#000000" d="M419.9385,-215.8314C419.9385,-208.131 419.9385,-198.9743 419.9385,-190.4166"/>
<polygon fill="#000000" stroke="#000000" points="423.4386,-190.4132 419.9385,-180.4133 416.4386,-190.4133 423.4386,-190.4132"/>
</g>
<!-- GM17 -->
<g id="node40" class="node">
<title>GM17</title>
<ellipse fill="#eec591" stroke="#000000" cx="331.9385" cy="-162" rx="33.4012" ry="18"/>
<text text-anchor="middle" x="331.9385" y="-157.8" font-family="Times,serif" font-size="14.00" fill="#000000">GM17</text>
</g>
<!-- Bellman&#45;&gt;GM17 -->
<g id="edge37" class="edge">
<title>Bellman&#45;&gt;GM17</title>
<path fill="none" stroke="#000000" d="M397.7324,-215.8314C385.7033,-205.9894 370.7669,-193.7687 358.1673,-183.4599"/>
<polygon fill="#000000" stroke="#000000" points="360.235,-180.6295 350.279,-177.0059 355.8023,-186.0472 360.235,-180.6295"/>
</g>
<!-- zexe&#45;&gt;GM17 -->
<g id="edge28" class="edge">
<title>zexe&#45;&gt;GM17</title>
<path fill="none" stroke="#000000" d="M340.1627,-215.8314C338.9863,-208.131 337.5873,-198.9743 336.2799,-190.4166"/>
<polygon fill="#000000" stroke="#000000" points="339.7218,-189.7699 334.7516,-180.4133 332.8021,-190.8272 339.7218,-189.7699"/>
</g>
<!-- dalek&#45;cryptography&#45;&gt;Bulletproofs -->
<g id="edge55" class="edge">
<title>dalek&#45;cryptography&#45;&gt;Bulletproofs</title>
<path fill="none" stroke="#000000" d="M540.5526,-215.8965C549.9517,-192.9835 565.9181,-152.1393 575.9385,-116 582.3757,-92.7835 587.4245,-65.8832 590.6945,-46.1459"/>
<polygon fill="#000000" stroke="#000000" points="594.1519,-46.69 592.283,-36.2613 587.2406,-45.5792 594.1519,-46.69"/>
</g>
<!-- CBMC&#45;GC&#45;2 -->
<g id="node8" class="node">
<title>CBMC&#45;GC&#45;2</title>
<polygon fill="#6e8b3d" stroke="#000000" points="444.1732,-612 351.7038,-612 351.7038,-576 444.1732,-576 444.1732,-612"/>
<text text-anchor="middle" x="397.9385" y="-589.8" font-family="Times,serif" font-size="14.00" fill="#ffffff">CBMC&#45;GC&#45;2</text>
</g>
<!-- Bristol -->
<g id="node10" class="node">
<title>Bristol</title>
<polygon fill="#00ffff" stroke="#000000" points="453.0558,-540 398.8212,-540 398.8212,-504 453.0558,-504 453.0558,-540"/>
<text text-anchor="middle" x="425.9385" y="-517.8" font-family="Times,serif" font-size="14.00" fill="#000000">Bristol</text>
</g>
<!-- CBMC&#45;GC&#45;2&#45;&gt;Bristol -->
<g id="edge4" class="edge">
<title>CBMC&#45;GC&#45;2&#45;&gt;Bristol</title>
<path fill="none" stroke="#000000" d="M405.0041,-575.8314C408.0645,-567.9617 411.7164,-558.5712 415.1066,-549.8533"/>
<polygon fill="#000000" stroke="#000000" points="418.4153,-551.0019 418.7778,-540.4133 411.8912,-548.4647 418.4153,-551.0019"/>
</g>
<!-- SHDL -->
<g id="node11" class="node">
<title>SHDL</title>
<polygon fill="#00ffff" stroke="#000000" points="541.9385,-468 487.9385,-468 487.9385,-432 541.9385,-432 541.9385,-468"/>
<text text-anchor="middle" x="514.9385" y="-445.8" font-family="Times,serif" font-size="14.00" fill="#000000">SHDL</text>
</g>
<!-- CBMC&#45;GC&#45;2&#45;&gt;SHDL -->
<g id="edge5" class="edge">
<title>CBMC&#45;GC&#45;2&#45;&gt;SHDL</title>
<path fill="none" stroke="#000000" d="M423.4069,-575.759C435.9197,-566.0293 450.6855,-553.3308 461.9385,-540 478.1738,-520.7668 492.3847,-495.9314 501.9934,-477.2233"/>
<polygon fill="#000000" stroke="#000000" points="505.2339,-478.5691 506.5851,-468.0608 498.9757,-475.4329 505.2339,-478.5691"/>
</g>
<!-- SCD -->
<g id="node12" class="node">
<title>SCD</title>
<polygon fill="#00ffff" stroke="#000000" points="401.9385,-468 347.9385,-468 347.9385,-432 401.9385,-432 401.9385,-468"/>
<text text-anchor="middle" x="374.9385" y="-445.8" font-family="Times,serif" font-size="14.00" fill="#000000">SCD</text>
</g>
<!-- CBMC&#45;GC&#45;2&#45;&gt;SCD -->
<g id="edge6" class="edge">
<title>CBMC&#45;GC&#45;2&#45;&gt;SCD</title>
<path fill="none" stroke="#000000" d="M352.9595,-575.9855C337.7645,-567.4759 322.4953,-555.6732 313.9385,-540 306.2715,-525.9566 307.3691,-518.5892 313.9385,-504 319.483,-491.6868 329.3766,-481.047 339.6041,-472.5451"/>
<polygon fill="#000000" stroke="#000000" points="342.04,-475.0854 347.8012,-466.1939 337.7526,-469.552 342.04,-475.0854"/>
</g>
<!-- C -->
<g id="node9" class="node">
<title>C</title>
<g id="a_node9"><a xlink:href="./#c" xlink:title="C" target="_top">
<polygon fill="#ffd700" stroke="#000000" points="322.9385,-684 268.9385,-684 268.9385,-648 322.9385,-648 322.9385,-684"/>
<text text-anchor="middle" x="295.9385" y="-661.8" font-family="Times,serif" font-size="14.00" fill="#000000">C</text>
</a>
</g>
</g>
<!-- C&#45;&gt;CBMC&#45;GC&#45;2 -->
<g id="edge3" class="edge">
<title>C&#45;&gt;CBMC&#45;GC&#45;2</title>
<path fill="none" stroke="#000000" d="M321.6774,-647.8314C334.4822,-638.7927 350.1294,-627.7476 363.9104,-618.0198"/>
<polygon fill="#000000" stroke="#000000" points="366.0565,-620.7891 372.2078,-612.1628 362.0197,-615.0703 366.0565,-620.7891"/>
</g>
<!-- Pinocchio Compiler -->
<g id="node13" class="node">
<title>Pinocchio Compiler</title>
<polygon fill="#6e8b3d" stroke="#000000" points="681.315,-612 552.5619,-612 552.5619,-576 681.315,-576 681.315,-612"/>
<text text-anchor="middle" x="616.9385" y="-589.8" font-family="Times,serif" font-size="14.00" fill="#ffffff">Pinocchio Compiler</text>
</g>
<!-- C&#45;&gt;Pinocchio Compiler -->
<g id="edge23" class="edge">
<title>C&#45;&gt;Pinocchio Compiler</title>
<path fill="none" stroke="#000000" d="M323.149,-660.3295C367.1545,-651.1042 456.901,-632.0633 542.5886,-612.286"/>
<polygon fill="#000000" stroke="#000000" points="543.5223,-615.6625 552.4748,-609.9966 541.943,-608.8429 543.5223,-615.6625"/>
</g>
<!-- Pepper Project -->
<g id="node36" class="node">
<title>Pepper Project</title>
<ellipse fill="none" stroke="#000000" cx="232.9385" cy="-594" rx="61.8481" ry="18"/>
<text text-anchor="middle" x="232.9385" y="-589.8" font-family="Times,serif" font-size="14.00" fill="#000000">Pepper Project</text>
</g>
<!-- C&#45;&gt;Pepper Project -->
<g id="edge20" class="edge">
<title>C&#45;&gt;Pepper Project</title>
<path fill="none" stroke="#000000" d="M280.0409,-647.8314C272.5228,-639.2392 263.4182,-628.834 255.2254,-619.4708"/>
<polygon fill="#000000" stroke="#000000" points="257.8318,-617.1344 248.6127,-611.9134 252.5638,-621.744 257.8318,-617.1344"/>
</g>
<!-- LLVM IR -->
<g id="node37" class="node">
<title>LLVM IR</title>
<polygon fill="#00ffff" stroke="#000000" points="71.8155,-252 .0614,-252 .0614,-216 71.8155,-216 71.8155,-252"/>
<text text-anchor="middle" x="35.9385" y="-229.8" font-family="Times,serif" font-size="14.00" fill="#000000">LLVM IR</text>
</g>
<!-- C&#45;&gt;LLVM IR -->
<g id="edge24" class="edge">
<title>C&#45;&gt;LLVM IR</title>
<path fill="none" stroke="#000000" d="M268.8368,-659.3223C215.9119,-644.4818 103.9385,-603.4583 103.9385,-522 103.9385,-522 103.9385,-522 103.9385,-378 103.9385,-333.5937 77.1707,-288.2246 57.2239,-260.5811"/>
<polygon fill="#000000" stroke="#000000" points="59.806,-258.1881 51.0299,-252.2525 54.189,-262.3654 59.806,-258.1881"/>
</g>
<!-- Bristol&#45;&gt;SHDL -->
<g id="edge13" class="edge">
<title>Bristol&#45;&gt;SHDL</title>
<path fill="none" stroke="#000000" d="M448.3969,-503.8314C459.359,-494.9632 472.7084,-484.1637 484.565,-474.5718"/>
<polygon fill="#000000" stroke="#000000" points="486.914,-477.1734 492.4872,-468.1628 482.5114,-471.7313 486.914,-477.1734"/>
</g>
<!-- Bristol&#45;&gt;SCD -->
<g id="edge18" class="edge">
<title>Bristol&#45;&gt;SCD</title>
<path fill="none" stroke="#000000" d="M413.069,-503.8314C407.2549,-495.6232 400.2689,-485.7606 393.8739,-476.7323"/>
<polygon fill="#000000" stroke="#000000" points="396.6175,-474.5505 387.9812,-468.4133 390.9053,-478.5966 396.6175,-474.5505"/>
</g>
<!-- Pinocchio -->
<g id="node34" class="node">
<title>Pinocchio</title>
<polygon fill="#00ffff" stroke="#000000" points="699.9316,-396 627.9453,-396 627.9453,-360 699.9316,-360 699.9316,-396"/>
<text text-anchor="middle" x="663.9385" y="-373.8" font-family="Times,serif" font-size="14.00" fill="#000000">Pinocchio</text>
</g>
<!-- SHDL&#45;&gt;Pinocchio -->
<g id="edge19" class="edge">
<title>SHDL&#45;&gt;Pinocchio</title>
<path fill="none" stroke="#000000" d="M542.2674,-436.7941C563.5734,-426.4986 593.6235,-411.9777 618.5283,-399.9432"/>
<polygon fill="#000000" stroke="#000000" points="620.3114,-402.9688 627.7925,-395.4665 617.2658,-396.6661 620.3114,-402.9688"/>
</g>
<!-- justGarble -->
<g id="node25" class="node">
<title>justGarble</title>
<polygon fill="#8b7355" stroke="#000000" points="412.2565,-396 337.6204,-396 337.6204,-360 412.2565,-360 412.2565,-396"/>
<text text-anchor="middle" x="374.9385" y="-373.8" font-family="Times,serif" font-size="14.00" fill="#ffffff">justGarble</text>
</g>
<!-- SCD&#45;&gt;justGarble -->
<g id="edge14" class="edge">
<title>SCD&#45;&gt;justGarble</title>
<path fill="none" stroke="#000000" d="M374.9385,-431.8314C374.9385,-424.131 374.9385,-414.9743 374.9385,-406.4166"/>
<polygon fill="#000000" stroke="#000000" points="378.4386,-406.4132 374.9385,-396.4133 371.4386,-406.4133 378.4386,-406.4132"/>
</g>
<!-- TinyGarble -->
<g id="node26" class="node">
<title>TinyGarble</title>
<polygon fill="#8b7355" stroke="#000000" points="593.9844,-396 513.8926,-396 513.8926,-360 593.9844,-360 593.9844,-396"/>
<text text-anchor="middle" x="553.9385" y="-373.8" font-family="Times,serif" font-size="14.00" fill="#ffffff">TinyGarble</text>
</g>
<!-- SCD&#45;&gt;TinyGarble -->
<g id="edge15" class="edge">
<title>SCD&#45;&gt;TinyGarble</title>
<path fill="none" stroke="#000000" d="M402.1247,-439.0647C429.1854,-428.18 471.3339,-411.2264 504.3605,-397.942"/>
<polygon fill="#000000" stroke="#000000" points="505.8795,-401.1036 513.851,-394.1246 503.2672,-394.6093 505.8795,-401.1036"/>
</g>
<!-- Pinocchio Compiler&#45;&gt;Pinocchio -->
<g id="edge22" class="edge">
<title>Pinocchio Compiler&#45;&gt;Pinocchio</title>
<path fill="none" stroke="#000000" d="M616.9596,-575.5819C617.4636,-545.0574 620.4964,-482.3566 635.9385,-432 638.7279,-422.9039 643.0218,-413.522 647.4159,-405.1821"/>
<polygon fill="#000000" stroke="#000000" points="650.563,-406.7236 652.3446,-396.2796 644.4389,-403.3331 650.563,-406.7236"/>
</g>
<!-- FairPlayPF -->
<g id="node14" class="node">
<title>FairPlayPF</title>
<polygon fill="#6e8b3d" stroke="#000000" points="588.4521,-540 509.4248,-540 509.4248,-504 588.4521,-504 588.4521,-540"/>
<text text-anchor="middle" x="548.9385" y="-517.8" font-family="Times,serif" font-size="14.00" fill="#ffffff">FairPlayPF</text>
</g>
<!-- FairPlayPF&#45;&gt;SHDL -->
<g id="edge8" class="edge">
<title>FairPlayPF&#45;&gt;SHDL</title>
<path fill="none" stroke="#000000" d="M540.3588,-503.8314C536.6027,-495.8771 532.1127,-486.369 527.9587,-477.5723"/>
<polygon fill="#000000" stroke="#000000" points="531.0686,-475.9612 523.6336,-468.4133 524.7389,-478.9503 531.0686,-475.9612"/>
</g>
<!-- SFDL -->
<g id="node15" class="node">
<title>SFDL</title>
<g id="a_node15"><a xlink:href="./#sfdl" xlink:title="SFDL" target="_top">
<polygon fill="#ffd700" stroke="#000000" points="534.9385,-612 480.9385,-612 480.9385,-576 534.9385,-576 534.9385,-612"/>
<text text-anchor="middle" x="507.9385" y="-589.8" font-family="Times,serif" font-size="14.00" fill="#000000">SFDL</text>
</a>
</g>
</g>
<!-- SFDL&#45;&gt;FairPlayPF -->
<g id="edge7" class="edge">
<title>SFDL&#45;&gt;FairPlayPF</title>
<path fill="none" stroke="#000000" d="M518.2845,-575.8314C522.8622,-567.7925 528.3436,-558.1666 533.3973,-549.2918"/>
<polygon fill="#000000" stroke="#000000" points="536.5462,-550.8351 538.4531,-540.4133 530.4633,-547.3712 536.5462,-550.8351"/>
</g>
<!-- Gappetto -->
<g id="node16" class="node">
<title>Gappetto</title>
<polygon fill="#6e8b3d" stroke="#000000" points="81.7566,-180 14.1203,-180 14.1203,-144 81.7566,-144 81.7566,-180"/>
<text text-anchor="middle" x="47.9385" y="-157.8" font-family="Times,serif" font-size="14.00" fill="#ffffff">Gappetto</text>
</g>
<!-- QAP -->
<g id="node42" class="node">
<title>QAP</title>
<ellipse fill="#ffe4c4" stroke="#000000" cx="247.9385" cy="-90" rx="27.5976" ry="18"/>
<text text-anchor="middle" x="247.9385" y="-85.8" font-family="Times,serif" font-size="14.00" fill="#000000">QAP</text>
</g>
<!-- Gappetto&#45;&gt;QAP -->
<g id="edge26" class="edge">
<title>Gappetto&#45;&gt;QAP</title>
<path fill="none" stroke="#000000" d="M81.7004,-144.1311C87.6991,-141.2415 93.9455,-138.411 99.9385,-136 137.5041,-120.8869 182.0473,-107.6463 212.3834,-99.2992"/>
<polygon fill="#000000" stroke="#000000" points="213.3635,-102.6599 222.0961,-96.6604 211.5282,-95.9048 213.3635,-102.6599"/>
</g>
<!-- libsecp256k1&#45;mw -->
<g id="node17" class="node">
<title>libsecp256k1&#45;mw</title>
<polygon fill="#8b7355" stroke="#000000" points="743.2563,-108 626.6207,-108 626.6207,-72 743.2563,-72 743.2563,-108"/>
<text text-anchor="middle" x="684.9385" y="-85.8" font-family="Times,serif" font-size="14.00" fill="#ffffff">libsecp256k1&#45;mw</text>
</g>
<!-- libsecp256k1&#45;mw&#45;&gt;Bulletproofs -->
<g id="edge54" class="edge">
<title>libsecp256k1&#45;mw&#45;&gt;Bulletproofs</title>
<path fill="none" stroke="#000000" d="M662.2277,-71.8314C651.1425,-62.9632 637.6431,-52.1637 625.6533,-42.5718"/>
<polygon fill="#000000" stroke="#000000" points="627.6372,-39.6768 617.642,-36.1628 623.2643,-45.1429 627.6372,-39.6768"/>
</g>
<!-- libsnark&#45;&gt;Gro16 -->
<g id="edge30" class="edge">
<title>libsnark&#45;&gt;Gro16</title>
<path fill="none" stroke="#000000" d="M262.144,-215.8314C260.058,-207.9266 257.5671,-198.4872 255.2578,-189.7365"/>
<polygon fill="#000000" stroke="#000000" points="258.6014,-188.6894 252.6656,-179.9134 251.8331,-190.4755 258.6014,-188.6894"/>
</g>
<!-- PGHR13 -->
<g id="node39" class="node">
<title>PGHR13</title>
<ellipse fill="#eec591" stroke="#000000" cx="154.9385" cy="-162" rx="42.5802" ry="18"/>
<text text-anchor="middle" x="154.9385" y="-157.8" font-family="Times,serif" font-size="14.00" fill="#000000">PGHR13</text>
</g>
<!-- libsnark&#45;&gt;PGHR13 -->
<g id="edge31" class="edge">
<title>libsnark&#45;&gt;PGHR13</title>
<path fill="none" stroke="#000000" d="M238.6761,-215.8314C223.0384,-205.7785 203.54,-193.2439 187.2939,-182.7999"/>
<polygon fill="#000000" stroke="#000000" points="188.9525,-179.7053 178.648,-177.2418 185.1671,-185.5936 188.9525,-179.7053"/>
</g>
<!-- libsnark&#45;&gt;GM17 -->
<g id="edge29" class="edge">
<title>libsnark&#45;&gt;GM17</title>
<path fill="none" stroke="#000000" d="M283.3407,-215.8314C291.5312,-206.7588 301.5466,-195.6649 310.3525,-185.9106"/>
<polygon fill="#000000" stroke="#000000" points="312.9943,-188.2074 317.0975,-178.4393 307.7985,-183.5166 312.9943,-188.2074"/>
</g>
<!-- bulletproofs_preprocess -->
<g id="node19" class="node">
<title>bulletproofs_preprocess</title>
<polygon fill="#6e8b3d" stroke="#000000" points="763.9568,-252 613.9201,-252 613.9201,-216 763.9568,-216 763.9568,-252"/>
<text text-anchor="middle" x="688.9385" y="-229.8" font-family="Times,serif" font-size="14.00" fill="#ffffff">bulletproofs_preprocess</text>
</g>
<!-- andytoshi -->
<g id="node20" class="node">
<title>andytoshi</title>
<polygon fill="#00ffff" stroke="#000000" points="722.3813,-180 651.4957,-180 651.4957,-144 722.3813,-144 722.3813,-180"/>
<text text-anchor="middle" x="686.9385" y="-157.8" font-family="Times,serif" font-size="14.00" fill="#000000">andytoshi</text>
</g>
<!-- bulletproofs_preprocess&#45;&gt;andytoshi -->
<g id="edge9" class="edge">
<title>bulletproofs_preprocess&#45;&gt;andytoshi</title>
<path fill="none" stroke="#000000" d="M688.4338,-215.8314C688.2199,-208.131 687.9655,-198.9743 687.7278,-190.4166"/>
<polygon fill="#000000" stroke="#000000" points="691.2264,-190.3122 687.45,-180.4133 684.2291,-190.5066 691.2264,-190.3122"/>
</g>
<!-- andytoshi&#45;&gt;libsecp256k1&#45;mw -->
<g id="edge10" class="edge">
<title>andytoshi&#45;&gt;libsecp256k1&#45;mw</title>
<path fill="none" stroke="#000000" d="M686.4338,-143.8314C686.2199,-136.131 685.9655,-126.9743 685.7278,-118.4166"/>
<polygon fill="#000000" stroke="#000000" points="689.2264,-118.3122 685.45,-108.4133 682.2291,-118.5066 689.2264,-118.3122"/>
</g>
<!-- DIZK&#45;&gt;Gro16 -->
<g id="edge12" class="edge">
<title>DIZK&#45;&gt;Gro16</title>
<path fill="none" stroke="#000000" d="M205.322,-215.8314C212.2602,-207.0673 220.6916,-196.4171 228.2179,-186.9103"/>
<polygon fill="#000000" stroke="#000000" points="231.0756,-188.9392 234.5385,-178.9263 225.5873,-184.5943 231.0756,-188.9392"/>
</g>
<!-- Gro16&#45;&gt;QAP -->
<g id="edge41" class="edge">
<title>Gro16&#45;&gt;QAP</title>
<path fill="none" stroke="#000000" d="M247.9385,-143.8314C247.9385,-136.131 247.9385,-126.9743 247.9385,-118.4166"/>
<polygon fill="#000000" stroke="#000000" points="251.4386,-118.4132 247.9385,-108.4133 244.4386,-118.4133 251.4386,-118.4132"/>
</g>
<!-- jsnark -->
<g id="node23" class="node">
<title>jsnark</title>
<polygon fill="#ff7f24" stroke="#000000" points="698.9385,-468 644.9385,-468 644.9385,-432 698.9385,-432 698.9385,-468"/>
<text text-anchor="middle" x="671.9385" y="-445.8" font-family="Times,serif" font-size="14.00" fill="#ffffff">jsnark</text>
</g>
<!-- jsnark&#45;&gt;Pinocchio -->
<g id="edge43" class="edge">
<title>jsnark&#45;&gt;Pinocchio</title>
<path fill="none" stroke="#000000" d="M669.9197,-431.8314C669.0641,-424.131 668.0467,-414.9743 667.0959,-406.4166"/>
<polygon fill="#000000" stroke="#000000" points="670.5674,-405.9656 665.9844,-396.4133 663.6102,-406.7386 670.5674,-405.9656"/>
</g>
<!-- snarkjs&#45;&gt;Gro16 -->
<g id="edge32" class="edge">
<title>snarkjs&#45;&gt;Gro16</title>
<path fill="none" stroke="#000000" d="M145.938,-220.3226C163.6373,-211.4824 186.8758,-199.5163 206.9385,-188 210.6391,-185.8758 214.4795,-183.5749 218.2597,-181.2504"/>
<polygon fill="#000000" stroke="#000000" points="220.2581,-184.1286 226.8765,-175.8554 216.5434,-178.1955 220.2581,-184.1286"/>
</g>
<!-- snarkjs&#45;&gt;PGHR13 -->
<g id="edge33" class="edge">
<title>snarkjs&#45;&gt;PGHR13</title>
<path fill="none" stroke="#000000" d="M127.2751,-215.8314C131.4698,-207.6688 136.5053,-197.87 141.1237,-188.8827"/>
<polygon fill="#000000" stroke="#000000" points="144.2752,-190.4075 145.733,-179.9134 138.0492,-187.208 144.2752,-190.4075"/>
</g>
<!-- zkSNARK -->
<g id="node27" class="node">
<title>zkSNARK</title>
<polygon fill="#cdc8b1" stroke="#000000" points="359.1081,-36 282.7688,-36 282.7688,0 359.1081,0 359.1081,-36"/>
<text text-anchor="middle" x="320.9385" y="-13.8" font-family="Times,serif" font-size="14.00" fill="#000000">zkSNARK</text>
</g>
<!-- Hyrax -->
<g id="node28" class="node">
<title>Hyrax</title>
<polygon fill="#cdc8b1" stroke="#000000" points="243.9385,-468 189.9385,-468 189.9385,-432 243.9385,-432 243.9385,-468"/>
<text text-anchor="middle" x="216.9385" y="-445.8" font-family="Times,serif" font-size="14.00" fill="#000000">Hyrax</text>
</g>
<!-- xjsnark -->
<g id="node29" class="node">
<title>xjsnark</title>
<g id="a_node29"><a xlink:href="./#xjsnark" xlink:title="xjsnark" target="_top">
<polygon fill="#ffd700" stroke="#000000" points="774.6527,-468 717.2242,-468 717.2242,-432 774.6527,-432 774.6527,-468"/>
<text text-anchor="middle" x="745.9385" y="-445.8" font-family="Times,serif" font-size="14.00" fill="#000000">xjsnark</text>
</a>
</g>
</g>
<!-- xjsnark&#45;&gt;Pinocchio -->
<g id="edge44" class="edge">
<title>xjsnark&#45;&gt;Pinocchio</title>
<path fill="none" stroke="#000000" d="M725.2464,-431.8314C715.2437,-423.0485 703.0834,-412.3712 692.2386,-402.8489"/>
<polygon fill="#000000" stroke="#000000" points="694.4477,-400.1308 684.6239,-396.1628 689.829,-405.3909 694.4477,-400.1308"/>
</g>
<!-- Zokrates -->
<g id="node30" class="node">
<title>Zokrates</title>
<g id="a_node30"><a xlink:href="./#zokrates" xlink:title="Zokrates" target="_top">
<polygon fill="#ffd700" stroke="#000000" points="495.418,-396 430.459,-396 430.459,-360 495.418,-360 495.418,-396"/>
<text text-anchor="middle" x="462.9385" y="-373.8" font-family="Times,serif" font-size="14.00" fill="#000000">Zokrates</text>
</a>
</g>
</g>
<!-- Zokrates&#45;&gt;R1CS -->
<g id="edge49" class="edge">
<title>Zokrates&#45;&gt;R1CS</title>
<path fill="none" stroke="#000000" d="M430.3945,-364.01C427.2013,-362.6501 424.0083,-361.2953 420.9385,-360 389.4922,-346.7308 353.6665,-331.8682 327.5986,-321.0999"/>
<polygon fill="#000000" stroke="#000000" points="328.6939,-317.7656 318.115,-317.1851 326.0229,-324.236 328.6939,-317.7656"/>
</g>
<!-- Circom -->
<g id="node31" class="node">
<title>Circom</title>
<g id="a_node31"><a xlink:href="./#circom" xlink:title="Circom" target="_top">
<polygon fill="#ffd700" stroke="#000000" points="319.9316,-396 261.9453,-396 261.9453,-360 319.9316,-360 319.9316,-396"/>
<text text-anchor="middle" x="290.9385" y="-373.8" font-family="Times,serif" font-size="14.00" fill="#000000">Circom</text>
</a>
</g>
</g>
<!-- Circom&#45;&gt;R1CS -->
<g id="edge50" class="edge">
<title>Circom&#45;&gt;R1CS</title>
<path fill="none" stroke="#000000" d="M290.9385,-359.8314C290.9385,-352.131 290.9385,-342.9743 290.9385,-334.4166"/>
<polygon fill="#000000" stroke="#000000" points="294.4386,-334.4132 290.9385,-324.4133 287.4386,-334.4133 294.4386,-334.4132"/>
</g>
<!-- Verilog -->
<g id="node32" class="node">
<title>Verilog</title>
<g id="a_node32"><a xlink:href="./#verilog" xlink:title="Verilog" target="_top">
<polygon fill="#ffd700" stroke="#000000" points="380.6527,-540 323.2242,-540 323.2242,-504 380.6527,-504 380.6527,-540"/>
<text text-anchor="middle" x="351.9385" y="-517.8" font-family="Times,serif" font-size="14.00" fill="#000000">Verilog</text>
</a>
</g>
</g>
<!-- Verilog&#45;&gt;SCD -->
<g id="edge16" class="edge">
<title>Verilog&#45;&gt;SCD</title>
<path fill="none" stroke="#000000" d="M357.7423,-503.8314C360.2292,-496.0463 363.1916,-486.7729 365.951,-478.1347"/>
<polygon fill="#000000" stroke="#000000" points="369.3475,-479.0041 369.0565,-468.4133 362.6794,-476.874 369.3475,-479.0041"/>
</g>
<!-- zkVM -->
<g id="node33" class="node">
<title>zkVM</title>
<polygon fill="#ff7f24" stroke="#000000" points="559.9385,-324 505.9385,-324 505.9385,-288 559.9385,-288 559.9385,-324"/>
<text text-anchor="middle" x="532.9385" y="-301.8" font-family="Times,serif" font-size="14.00" fill="#ffffff">zkVM</text>
</g>
<!-- zkVM&#45;&gt;dalek&#45;cryptography -->
<g id="edge17" class="edge">
<title>zkVM&#45;&gt;dalek&#45;cryptography</title>
<path fill="none" stroke="#000000" d="M532.9385,-287.8314C532.9385,-280.131 532.9385,-270.9743 532.9385,-262.4166"/>
<polygon fill="#000000" stroke="#000000" points="536.4386,-262.4132 532.9385,-252.4133 529.4386,-262.4133 536.4386,-262.4132"/>
</g>
<!-- Pinocchio&#45;&gt;R1CS -->
<g id="edge45" class="edge">
<title>Pinocchio&#45;&gt;R1CS</title>
<path fill="none" stroke="#000000" d="M627.6723,-366.5508C619.5783,-364.205 611.0033,-361.8812 602.9385,-360 504.7108,-337.0878 387.0131,-319.2793 328.2149,-311.0287"/>
<polygon fill="#000000" stroke="#000000" points="328.6647,-307.5577 318.2779,-309.6469 327.7005,-314.491 328.6647,-307.5577"/>
</g>
<!-- .program -->
<g id="node43" class="node">
<title>.program</title>
<ellipse fill="none" stroke="#000000" cx="675.9385" cy="-306" rx="42.0545" ry="18"/>
<text text-anchor="middle" x="675.9385" y="-301.8" font-family="Times,serif" font-size="14.00" fill="#000000">.program</text>
</g>
<!-- Pinocchio&#45;&gt;.program -->
<g id="edge52" class="edge">
<title>Pinocchio&#45;&gt;.program</title>
<path fill="none" stroke="#000000" d="M666.9666,-359.8314C668.25,-352.131 669.7761,-342.9743 671.2024,-334.4166"/>
<polygon fill="#000000" stroke="#000000" points="674.6779,-334.8526 672.8696,-324.4133 667.7731,-333.7018 674.6779,-334.8526"/>
</g>
<!-- Prover Worksheet -->
<g id="node35" class="node">
<title>Prover Worksheet</title>
<polygon fill="#00ffff" stroke="#000000" points="267.044,-540 150.833,-540 150.833,-504 267.044,-504 267.044,-540"/>
<text text-anchor="middle" x="208.9385" y="-517.8" font-family="Times,serif" font-size="14.00" fill="#000000">Prover Worksheet</text>
</g>
<!-- Prover Worksheet&#45;&gt;R1CS -->
<g id="edge57" class="edge">
<title>Prover Worksheet&#45;&gt;R1CS</title>
<path fill="none" stroke="#000000" d="M196.7568,-503.882C190.707,-493.7891 184.0407,-480.7221 180.9385,-468 169.5672,-421.3664 155.5545,-400.7389 180.9385,-360 196.8298,-334.4959 228.6729,-320.6963 254.0267,-313.4496"/>
<polygon fill="#000000" stroke="#000000" points="254.9471,-316.8267 263.7279,-310.8981 253.1665,-310.0569 254.9471,-316.8267"/>
</g>
<!-- Prover Worksheet&#45;&gt;Hyrax -->
<g id="edge56" class="edge">
<title>Prover Worksheet&#45;&gt;Hyrax</title>
<path fill="none" stroke="#000000" d="M210.9572,-503.8314C211.8128,-496.131 212.8302,-486.9743 213.7811,-478.4166"/>
<polygon fill="#000000" stroke="#000000" points="217.2667,-478.7386 214.8926,-468.4133 210.3096,-477.9656 217.2667,-478.7386"/>
</g>
<!-- Pepper Project&#45;&gt;Prover Worksheet -->
<g id="edge21" class="edge">
<title>Pepper Project&#45;&gt;Prover Worksheet</title>
<path fill="none" stroke="#000000" d="M226.8823,-575.8314C224.2873,-568.0463 221.1961,-558.7729 218.3167,-550.1347"/>
<polygon fill="#000000" stroke="#000000" points="221.559,-548.7933 215.0762,-540.4133 214.9182,-551.0069 221.559,-548.7933"/>
</g>
<!-- LLVM IR&#45;&gt;Gappetto -->
<g id="edge25" class="edge">
<title>LLVM IR&#45;&gt;Gappetto</title>
<path fill="none" stroke="#000000" d="M38.9666,-215.8314C40.25,-208.131 41.7761,-198.9743 43.2024,-190.4166"/>
<polygon fill="#000000" stroke="#000000" points="46.6779,-190.8526 44.8696,-180.4133 39.7731,-189.7018 46.6779,-190.8526"/>
</g>
<!-- SONIC&#45;&gt;zkSNARK -->
<g id="edge35" class="edge">
<title>SONIC&#45;&gt;zkSNARK</title>
<path fill="none" stroke="#000000" d="M410.3059,-144.4888C399.0497,-124.4722 379.4665,-90.9923 359.9385,-64 355.1055,-57.3198 349.5555,-50.3965 344.1868,-44.0119"/>
<polygon fill="#000000" stroke="#000000" points="346.717,-41.5857 337.5512,-36.2717 341.4026,-46.1418 346.717,-41.5857"/>
</g>
<!-- PGHR13&#45;&gt;QAP -->
<g id="edge38" class="edge">
<title>PGHR13&#45;&gt;QAP</title>
<path fill="none" stroke="#000000" d="M175.5782,-146.0209C189.1771,-135.4927 207.1028,-121.6147 221.71,-110.3059"/>
<polygon fill="#000000" stroke="#000000" points="224.1046,-112.8784 229.8693,-103.9891 219.8194,-107.3433 224.1046,-112.8784"/>
</g>
<!-- SAP -->
<g id="node41" class="node">
<title>SAP</title>
<ellipse fill="#ffe4c4" stroke="#000000" cx="320.9385" cy="-90" rx="27" ry="18"/>
<text text-anchor="middle" x="320.9385" y="-85.8" font-family="Times,serif" font-size="14.00" fill="#000000">SAP</text>
</g>
<!-- GM17&#45;&gt;SAP -->
<g id="edge39" class="edge">
<title>GM17&#45;&gt;SAP</title>
<path fill="none" stroke="#000000" d="M329.1627,-143.8314C327.9682,-136.0125 326.5442,-126.6923 325.2196,-118.0221"/>
<polygon fill="#000000" stroke="#000000" points="328.6454,-117.2701 323.6752,-107.9134 321.7257,-118.3273 328.6454,-117.2701"/>
</g>
<!-- SAP&#45;&gt;zkSNARK -->
<g id="edge40" class="edge">
<title>SAP&#45;&gt;zkSNARK</title>
<path fill="none" stroke="#000000" d="M320.9385,-71.8314C320.9385,-64.131 320.9385,-54.9743 320.9385,-46.4166"/>
<polygon fill="#000000" stroke="#000000" points="324.4386,-46.4132 320.9385,-36.4133 317.4386,-46.4133 324.4386,-46.4132"/>
</g>
<!-- QAP&#45;&gt;zkSNARK -->
<g id="edge42" class="edge">
<title>QAP&#45;&gt;zkSNARK</title>
<path fill="none" stroke="#000000" d="M263.4199,-74.7307C272.7373,-65.5409 284.8267,-53.6171 295.5159,-43.0743"/>
<polygon fill="#000000" stroke="#000000" points="297.9792,-45.5607 302.6411,-36.0467 293.0637,-40.577 297.9792,-45.5607"/>
</g>
<!-- .program&#45;&gt;bulletproofs_preprocess -->
<g id="edge53" class="edge">
<title>.program&#45;&gt;bulletproofs_preprocess</title>
<path fill="none" stroke="#000000" d="M679.2189,-287.8314C680.6093,-280.131 682.2626,-270.9743 683.8077,-262.4166"/>
<polygon fill="#000000" stroke="#000000" points="687.2813,-262.8761 685.6139,-252.4133 680.3926,-261.6322 687.2813,-262.8761"/>
</g>
</g>
</svg>
