<?xml version="1.0" encoding="UTF-8" standalone="no"?>
<!DOCTYPE svg PUBLIC "-//W3C//DTD SVG 1.1//EN"
 "http://www.w3.org/Graphics/SVG/1.1/DTD/svg11.dtd">
<!-- Generated by graphviz version 2.40.1 (20161225.0304)
 -->
<!-- Title: G Pages: 1 -->
<svg width="963pt" height="98pt"
 viewBox="0.00 0.00 963.00 98.00" xmlns="http://www.w3.org/2000/svg" xmlns:xlink="http://www.w3.org/1999/xlink">
<g id="graph0" class="graph" transform="scale(1 1) rotate(0) translate(4 94)">
<title>G</title>
<polygon fill="#ffffff" stroke="transparent" points="-4,4 -4,-94 959,-94 959,4 -4,4"/>
<g id="clust1" class="cluster">
<title>cluster_legend</title>
<polygon fill="#f5f5f5" stroke="#f5f5f5" points="8,-8 8,-82 947,-82 947,-8 8,-8"/>
<text text-anchor="middle" x="477.5" y="-66.8" font-family="Times,serif" font-size="14.00" fill="#000000">legend</text>
</g>
<!-- Frameworks -->
<g id="node1" class="node">
<title>Frameworks</title>
<g id="a_node1"><a xlink:href="./#frameworks" xlink:title="Frameworks" target="_top">
<polygon fill="#ff7f24" stroke="#000000" points="938.9863,-52 853.0137,-52 853.0137,-16 938.9863,-16 938.9863,-52"/>
<text text-anchor="middle" x="896" y="-29.8" font-family="Times,serif" font-size="14.00" fill="#ffffff">Frameworks</text>
</a>
</g>
</g>
<!-- Compilers -->
<g id="node2" class="node">
<title>Compilers</title>
<g id="a_node2"><a xlink:href="./#compilers" xlink:title="Compilers" target="_top">
<polygon fill="#6e8b3d" stroke="#000000" points="835.3318,-52 760.6682,-52 760.6682,-16 835.3318,-16 835.3318,-52"/>
<text text-anchor="middle" x="798" y="-29.8" font-family="Times,serif" font-size="14.00" fill="#ffffff">Compilers</text>
</a>
</g>
</g>
<!-- Languages -->
<g id="node3" class="node">
<title>Languages</title>
<g id="a_node3"><a xlink:href="./#languages" xlink:title="Languages" target="_top">
<polygon fill="#ffd700" stroke="#000000" points="743.1424,-52 666.8576,-52 666.8576,-16 743.1424,-16 743.1424,-52"/>
<text text-anchor="middle" x="705" y="-29.8" font-family="Times,serif" font-size="14.00" fill="#000000">Languages</text>
</a>
</g>
</g>
<!-- Libraries -->
<g id="node4" class="node">
<title>Libraries</title>
<g id="a_node4"><a xlink:href="./#libraries" xlink:title="Libraries" target="_top">
<polygon fill="#8b7355" stroke="#000000" points="648.0329,-52 581.9671,-52 581.9671,-16 648.0329,-16 648.0329,-52"/>
<text text-anchor="middle" x="615" y="-29.8" font-family="Times,serif" font-size="14.00" fill="#ffffff">Libraries</text>
</a>
</g>
</g>
<!-- Intermediate Format -->
<g id="node5" class="node">
<title>Intermediate Format</title>
<g id="a_node5"><a xlink:href="./#intermediate-formats" xlink:title="Intermediate Format" target="_top">
<polygon fill="#00ffff" stroke="#000000" points="563.1801,-52 432.8199,-52 432.8199,-16 563.1801,-16 563.1801,-52"/>
<text text-anchor="middle" x="498" y="-29.8" font-family="Times,serif" font-size="14.00" fill="#000000">Intermediate Format</text>
</a>
</g>
</g>
<!-- Technologies -->
<g id="node6" class="node">
<title>Technologies</title>
<g id="a_node6"><a xlink:href="./#technologies" xlink:title="Technologies" target="_top">
<polygon fill="#cdc8b1" stroke="#000000" points="414.4445,-52 323.5555,-52 323.5555,-16 414.4445,-16 414.4445,-52"/>
<text text-anchor="middle" x="369" y="-29.8" font-family="Times,serif" font-size="14.00" fill="#000000">Technologies</text>
</a>
</g>
</g>
<!-- Proving Systems -->
<g id="node7" class="node">
<title>Proving Systems</title>
<g id="a_node7"><a xlink:href="./#proving-systems" xlink:title="Proving Systems" target="_top">
<ellipse fill="#eec591" stroke="#000000" cx="236" cy="-34" rx="69.6182" ry="18"/>
<text text-anchor="middle" x="236" y="-29.8" font-family="Times,serif" font-size="14.00" fill="#000000">Proving Systems</text>
</a>
</g>
</g>
<!-- Algebraic Form -->
<g id="node8" class="node">
<title>Algebraic Form</title>
<g id="a_node8"><a xlink:href="./#forms" xlink:title="Algebraic Form" target="_top">
<ellipse fill="#ffe4c4" stroke="#000000" cx="82" cy="-34" rx="66.1918" ry="18"/>
<text text-anchor="middle" x="82" y="-29.8" font-family="Times,serif" font-size="14.00" fill="#000000">Algebraic Form</text>
</a>
</g>
</g>
</g>
</svg>
